<svg xmlns="http://www.w3.org/2000/svg" viewBox="0 0 180 230">
  <defs>
    <linearGradient id="coat" x1="0" y1="0" x2="0" y2="1">
      <stop offset="0" stop-color="#d66f5a"/>
      <stop offset="1" stop-color="#a84f42"/>
    </linearGradient>
  </defs>
  <circle cx="92" cy="42" r="28" fill="#f2c7a5"/>
  <path d="M63 38c3-25 48-37 60-5 4 11 0 19-2 24-6-19-15-23-28-22-9 1-18 5-25 12z" fill="#263044"/>
  <path d="M74 72c8-8 30-10 42 1 12 23 15 58 15 80H55c2-25 5-58 19-81z" fill="url(#coat)"/>
  <path d="M64 83c-16 18-25 35-32 56" stroke="#f2c7a5" stroke-width="13" stroke-linecap="round"/>
  <path d="M118 82c15 17 23 33 32 50" stroke="#f2c7a5" stroke-width="13" stroke-linecap="round"/>
  <path d="M69 150l-11 59" stroke="#263044" stroke-width="18" stroke-linecap="round"/>
  <path d="M112 150l14 58" stroke="#263044" stroke-width="18" stroke-linecap="round"/>
  <path d="M57 208h31" stroke="#1a2230" stroke-width="14" stroke-linecap="round"/>
  <path d="M112 208h34" stroke="#1a2230" stroke-width="14" stroke-linecap="round"/>
  <rect x="50" y="83" width="25" height="48" rx="8" fill="#e8b74f"/>
  <path d="M72 89h43" stroke="#fff4df" stroke-width="4" stroke-linecap="round" opacity=".65"/>
</svg>
