<svg xmlns="http://www.w3.org/2000/svg" viewBox="0 0 1920 1080" preserveAspectRatio="xMidYMid slice">
  <defs>
    <linearGradient id="sky3" x1="0" y1="0" x2="0" y2="1">
      <stop offset="0" stop-color="#243652"/>
      <stop offset="1" stop-color="#6e6686"/>
    </linearGradient>
    <linearGradient id="ground3" x1="0" y1="0" x2="0" y2="1">
      <stop offset="0" stop-color="#53624e"/>
      <stop offset="1" stop-color="#6f765e"/>
    </linearGradient>
  </defs>
  <rect width="1920" height="1080" fill="url(#sky3)"/>
  <circle cx="120" cy="90" r="3" fill="#fff" opacity="0.8"/>
<circle cx="220" cy="130" r="2" fill="#fff" opacity="0.7"/>
<circle cx="360" cy="70" r="2.5" fill="#fff" opacity="0.9"/>
<circle cx="500" cy="150" r="2" fill="#fff" opacity="0.65"/>
<circle cx="660" cy="85" r="3" fill="#fff" opacity="0.85"/>
<circle cx="810" cy="145" r="2" fill="#fff" opacity="0.7"/>
<circle cx="970" cy="65" r="2.5" fill="#fff" opacity="0.8"/>
<circle cx="1130" cy="120" r="2" fill="#fff" opacity="0.7"/>
<circle cx="1280" cy="80" r="3" fill="#fff" opacity="0.9"/>
<circle cx="1450" cy="145" r="2" fill="#fff" opacity="0.65"/>
<circle cx="1600" cy="72" r="2.5" fill="#fff" opacity="0.8"/>
<circle cx="1780" cy="118" r="2" fill="#fff" opacity="0.7"/>
  <circle cx="1470" cy="210" r="84" fill="#e7d7a8" opacity=".72"/>
  <path d="M0 610 Q250 430 480 600 T960 560 T1440 590 T1920 520 V1080 H0z" fill="#4d5872" opacity=".86"/>
  <path d="M0 720 Q270 530 560 710 T1120 650 T1600 700 T1920 620 V1080 H0z" fill="#363f58" opacity=".94"/>
  <rect y="790" width="1920" height="290" fill="url(#ground3)"/>
  <path d="M0 925 C300 870 550 960 850 900 S1450 855 1920 930" fill="none" stroke="#e8d9bd" stroke-width="82" opacity=".78"/>
  <g opacity=".55" fill="#fff">
    <ellipse cx="240" cy="225" rx="125" ry="36"/>
    <ellipse cx="320" cy="210" rx="90" ry="42"/>
    <ellipse cx="1420" cy="250" rx="150" ry="42"/>
    <ellipse cx="1535" cy="230" rx="92" ry="38"/>
  </g>
  <g fill="#344b3e" opacity=".82">
    <path d="M250 805l48-180 48 180z"/>
    <rect x="292" y="790" width="12" height="84"/>
    <path d="M1560 815l55-210 55 210z"/>
    <rect x="1609" y="800" width="13" height="86"/>
    <path d="M1740 830l38-145 38 145z"/>
    <rect x="1774" y="818" width="10" height="62"/>
  </g>
</svg>
